# xmcd
#
# Track frame offsets: 
#        150
#        19160
#        39437
#        62100
#        85890
#        108492
#        130130
#        142547
#        160910
#        178067
#        192342
#        211605
#        232487
#        249822
#        269370
#        296850
#        321677
#
# Disc length: 4545 seconds
#
# Revision: 3
# Processed by: cddbd v1.5.2PL0 Copyright (c) Steve Scherf et al.
# Submitted via: ExactAudioCopy v0.95b4
#
DISCID=fa11bf11
DTITLE=Various Artist - Dreams [Disc 2]
DYEAR=1900
DGENRE=
TTITLE0=Berlin - Take My Breath Away
TTITLE1=Bonnie Tyler - Total Eclipse Of The Heart
TTITLE2=Paul Young - Love Will Tear Us Apart
TTITLE3=Lise Stanfield - All Woman
TTITLE4=Toni Braxton - Another Sad Love Song
TTITLE5=Marvin Gaye - Sexual Healing
TTITLE6=Michael Jackson - Ben
TTITLE7=Gregory Abbott - Shake You Down
TTITLE8=Mtume - Juicy Fruit
TTITLE9=Shai - If I Ever Fall In Love
TTITLE10=London Beat - 9 AM
TTITLE11=Dee C. Lee - See The Day
TTITLE12=Carmel - Sally
TTITLE13=Kool and the Gang - Cherish
TTITLE14=The Christians - Words
TTITLE15=Stylistics - You Make Me Feel Brand New
TTITLE16=Barry White - Love Serenade
EXTD=
EXTT0=
EXTT1=
EXTT2=
EXTT3=
EXTT4=
EXTT5=
EXTT6=
EXTT7=
EXTT8=
EXTT9=
EXTT10=
EXTT11=
EXTT12=
EXTT13=
EXTT14=
EXTT15=
EXTT16=
PLAYORDER=
